<?xml version="1.0" standalone="no"?><!DOCTYPE svg PUBLIC "-//W3C//DTD SVG 1.1//EN" "http://www.w3.org/Graphics/SVG/1.1/DTD/svg11.dtd"><svg class="icon" height="512" viewBox="0 0 1024 1024" version="1.1" xmlns="http://www.w3.org/2000/svg"><path d="M619.729531 867.26409C619.729531 880.166945 609.314484 890.638828 596.481655 890.638828L410.498661 890.638828C397.665834 890.638828 387.250786 880.166945 387.250786 867.26409 387.250786 854.36124 397.665834 843.889357 410.498661 843.889357L596.481655 843.889357C609.314484 843.889357 619.729531 854.36124 619.729531 867.26409L619.729531 867.26409ZM596.481655 902.326194 410.498661 902.326194C395.201559 902.326194 383.356767 917.180838 388.448052 933.321093 391.516772 943.056671 401.315751 949.075665 411.475072 949.075665L411.82379 949.075665C425.249437 949.075665 437.524315 956.707516 443.533891 968.780567L443.777993 969.271435C451.879877 985.540252 468.420739 995.825136 486.51921 995.825136L520.461107 995.825136C538.559574 995.825136 555.100439 985.540252 563.190698 969.271435L563.434799 968.780567C569.444377 956.707516 581.719253 949.075665 595.144901 949.075665L595.493622 949.075665C605.652943 949.075665 615.451918 943.056671 618.520642 933.321093 623.623549 917.180838 611.778757 902.326194 596.481655 902.326194L596.481655 902.326194ZM503.490159 154.334677C516.322984 154.334677 526.738035 143.862795 526.738035 130.959941L526.738035 37.461002C526.738035 24.558148 516.322984 14.086266 503.490159 14.086266 490.657329 14.086266 480.242282 24.558148 480.242282 37.461002L480.242282 130.959941C480.242282 143.862795 490.657329 154.334677 503.490159 154.334677L503.490159 154.334677ZM256.911579 243.333979C261.444914 247.903739 267.39637 250.182777 273.347826 250.182777 279.299282 250.182777 285.250737 247.903739 289.784073 243.333979 298.862368 234.206146 298.862368 219.409938 289.784073 210.282104L224.027461 144.166665C214.96079 135.038832 200.221637 135.038832 191.154966 144.166665 182.076672 153.294499 182.076672 168.090707 191.154966 177.218541L256.911579 243.333979 256.911579 243.333979ZM201.267791 458.206233C201.267791 445.303378 190.852744 434.831495 178.019917 434.831495L85.02842 434.831495C72.195593 434.831495 61.780545 445.303378 61.780545 458.206233 61.780545 471.109083 72.195593 481.580966 85.02842 481.580966L178.019917 481.580966C190.852744 481.580966 201.267791 471.109083 201.267791 458.206233L201.267791 458.206233ZM256.911579 673.078481 191.154966 739.193917C182.076672 748.321751 182.076672 763.117961 191.154966 772.245795 195.688301 776.815555 201.639758 779.094594 207.591213 779.094594 213.542669 779.094594 219.494124 776.815555 224.027461 772.245795L289.784073 706.130358C298.862368 697.002525 298.862368 682.206314 289.784073 673.078481 280.717402 663.950647 265.97825 663.950647 256.911579 673.078481L256.911579 673.078481ZM750.068736 673.078481C740.990444 663.950647 726.27454 663.950647 717.196243 673.078481 708.117946 682.206314 708.117946 697.002521 717.196243 706.130358L782.952854 772.245795C787.497816 776.815555 793.437647 779.094594 799.389102 779.094594 805.340557 779.094594 811.280392 776.815555 815.825351 772.245795 824.903643 763.117961 824.903643 748.321755 815.825351 739.193917L750.068736 673.078481 750.068736 673.078481ZM921.951896 434.831495 828.960399 434.831495C816.127574 434.831495 805.712523 445.303378 805.712523 458.206233 805.712523 471.109083 816.127574 481.580966 828.960399 481.580966L921.951896 481.580966C934.784725 481.580966 945.199772 471.109083 945.199772 458.206233 945.199772 445.303378 934.784725 434.831495 921.951896 434.831495L921.951896 434.831495ZM733.632492 250.182777C739.583947 250.182777 745.523778 247.903739 750.068736 243.333979L815.825351 177.218541C824.903643 168.090708 824.903643 153.2945 815.825351 144.166665 806.747054 135.038831 792.03115 135.038832 782.952854 144.166665L717.196243 210.282104C708.117946 219.409937 708.117946 234.206145 717.196243 243.333979 721.729577 247.903739 727.681036 250.182777 733.632492 250.182777L733.632492 250.182777ZM619.729531 808.827253C619.729531 821.730107 609.314484 832.20199 596.481655 832.20199L410.498661 832.20199C397.665834 832.20199 387.250786 821.730107 387.250786 808.827253 387.250786 796.380209 396.956773 786.29401 409.161907 785.592766 394.690106 654.063133 259.387478 624.762905 259.387478 469.893599 259.387478 334.34351 368.675735 224.458882 503.490159 224.458882 638.30458 224.458882 747.592839 334.343511 747.592839 469.893599 747.592839 624.762905 612.290212 654.063133 597.818409 785.592766 610.023543 786.29401 619.729531 796.380209 619.729531 808.827253L619.729531 808.827253ZM449.915431 290.025013C446.300387 281.060802 436.152689 276.748163 427.202258 280.35956 367.792315 304.564099 322.749558 356.304074 306.720149 418.761366 304.313994 428.146323 309.928356 437.694902 319.250752 440.114184 320.703745 440.499868 322.168361 440.675181 323.60973 440.675181 331.374521 440.675181 338.453498 435.427553 340.487687 427.526889 353.762223 375.775227 391.075061 332.905964 440.290811 312.862128 449.217995 309.227357 453.518852 299.012599 449.915431 290.025013L449.915431 290.025013Z" fill="#2c2c2c" /></svg>